<svg width="368" height="346" viewBox="0 0 368 346" fill="none" xmlns="http://www.w3.org/2000/svg">
<path d="M322 0H46C20.5949 0 0 20.6248 0 46.0667C0 71.5086 20.5949 92.1333 46 92.1333H322C347.405 92.1333 368 71.5086 368 46.0667C368 20.6248 347.405 0 322 0Z" fill="#34D399"/>
<path d="M276 126.683H92C66.5949 126.683 46 147.308 46 172.75C46 198.192 66.5949 218.817 92 218.817H276C301.405 218.817 322 198.192 322 172.75C322 147.308 301.405 126.683 276 126.683Z" fill="#10B981"/>
<path d="M230 253.367H138C112.595 253.367 92 273.991 92 299.433C92 324.875 112.595 345.5 138 345.5H230C255.405 345.5 276 324.875 276 299.433C276 273.991 255.405 253.367 230 253.367Z" fill="#047857"/>
</svg>
