<svg width="2538" height="346" viewBox="0 0 2538 346" fill="none" xmlns="http://www.w3.org/2000/svg">
<g clip-path="url(#clip0_458_2144)">
<path d="M322 0H46C20.5949 0 0 20.6248 0 46.0667C0 71.5086 20.5949 92.1333 46 92.1333H322C347.405 92.1333 368 71.5086 368 46.0667C368 20.6248 347.405 0 322 0Z" fill="#34D399"/>
<path d="M276 126.683H92C66.5949 126.683 46 147.308 46 172.75C46 198.192 66.5949 218.817 92 218.817H276C301.405 218.817 322 198.192 322 172.75C322 147.308 301.405 126.683 276 126.683Z" fill="#10B981"/>
<path d="M230 253.367H138C112.595 253.367 92 273.991 92 299.433C92 324.875 112.595 345.5 138 345.5H230C255.405 345.5 276 324.875 276 299.433C276 273.991 255.405 253.367 230 253.367Z" fill="#047857"/>
<path d="M493 310.134V31.2168H604.76C625.295 31.2168 642.422 34.2584 656.142 40.3415C669.862 46.4247 680.175 54.8685 687.081 65.6729C693.986 76.3865 697.439 88.7344 697.439 102.717C697.439 113.612 695.258 123.19 690.897 131.453C686.536 139.624 680.539 146.343 672.906 151.609C665.365 156.784 656.733 160.461 647.011 162.64V165.364C657.642 165.818 667.591 168.814 676.859 174.352C686.218 179.891 693.805 187.654 699.62 197.641C705.435 207.537 708.342 219.341 708.342 233.05C708.342 247.85 704.663 261.06 697.303 272.682C690.034 284.212 679.267 293.337 665.001 300.056C650.736 306.774 633.154 310.134 612.256 310.134H493ZM552.015 261.923H600.126C616.572 261.923 628.566 258.79 636.107 252.525C643.649 246.17 647.42 237.726 647.42 227.194C647.42 219.477 645.557 212.667 641.832 206.766C638.106 200.864 632.791 196.234 625.885 192.874C619.071 189.515 610.939 187.835 601.489 187.835H552.015V261.923ZM552.015 147.932H595.765C603.851 147.932 611.029 146.524 617.299 143.71C623.659 140.804 628.657 136.719 632.291 131.453C636.016 126.187 637.879 119.876 637.879 112.522C637.879 102.444 634.29 94.3181 627.112 88.1442C620.025 81.9702 609.939 78.8833 596.855 78.8833H552.015V147.932Z" fill="currentColor"/>
<path d="M879.901 221.066V100.946H937.962V310.134H882.218V272.137H880.037C875.312 284.394 867.453 294.245 856.459 301.69C845.555 309.135 832.244 312.858 816.525 312.858C802.532 312.858 790.22 309.68 779.589 303.324C768.959 296.969 760.645 287.935 754.648 276.223C748.742 264.51 745.743 250.483 745.653 234.14V100.946H803.713V223.789C803.804 236.137 807.121 245.898 813.663 253.07C820.205 260.243 828.973 263.829 839.967 263.829C846.963 263.829 853.506 262.24 859.593 259.063C865.681 255.794 870.588 250.982 874.313 244.626C878.129 238.271 879.992 230.417 879.901 221.066Z" fill="currentColor"/>
<path d="M1078.99 314.22C1057.55 314.22 1039.1 309.68 1023.66 300.601C1008.3 291.43 996.488 278.719 988.22 262.467C980.042 246.215 975.953 227.512 975.953 206.357C975.953 184.93 980.087 166.136 988.356 149.974C996.715 133.722 1008.57 121.057 1023.93 111.977C1039.28 102.807 1057.55 98.2223 1078.72 98.2223C1096.98 98.2223 1112.97 101.536 1126.69 108.164C1140.41 114.792 1151.27 124.098 1159.27 136.083C1167.26 148.068 1171.67 162.141 1172.49 178.302H1117.7C1116.15 167.861 1112.06 159.462 1105.43 153.107C1098.89 146.66 1090.3 143.437 1079.67 143.437C1070.68 143.437 1062.82 145.889 1056.09 150.792C1049.46 155.604 1044.28 162.64 1040.56 171.901C1036.83 181.162 1034.97 192.375 1034.97 205.54C1034.97 218.887 1036.79 230.236 1040.42 239.587C1044.14 248.939 1049.37 256.066 1056.09 260.969C1062.82 265.872 1070.68 268.323 1079.67 268.323C1086.3 268.323 1092.26 266.962 1097.53 264.238C1102.89 261.514 1107.29 257.564 1110.75 252.389C1114.29 247.123 1116.61 240.813 1117.7 233.459H1172.49C1171.58 249.438 1167.22 263.511 1159.4 275.678C1151.68 287.753 1141 297.196 1127.37 304.005C1113.75 310.815 1097.62 314.22 1078.99 314.22Z" fill="currentColor"/>
<path d="M1262.27 249.938L1262.41 180.345H1270.86L1337.91 100.946H1404.56L1314.47 206.085H1300.7L1262.27 249.938ZM1209.66 310.134V31.2168H1267.72V310.134H1209.66ZM1340.5 310.134L1278.9 219.023L1317.6 178.03L1408.51 310.134H1340.5Z" fill="currentColor"/>
<path d="M1519.83 314.22C1498.29 314.22 1479.76 309.861 1464.22 301.145C1448.78 292.338 1436.87 279.9 1428.51 263.829C1420.15 247.668 1415.97 228.556 1415.97 206.493C1415.97 184.975 1420.15 166.09 1428.51 149.838C1436.87 133.586 1448.64 120.921 1463.81 111.841C1479.08 102.762 1496.98 98.2223 1517.51 98.2223C1531.32 98.2223 1544.18 100.447 1556.08 104.896C1568.08 109.254 1578.53 115.836 1587.43 124.643C1596.43 133.45 1603.42 144.527 1608.42 157.873C1613.42 171.129 1615.92 186.655 1615.92 204.45V220.385H1439.14V184.43H1561.26C1561.26 176.077 1559.44 168.678 1555.81 162.232C1552.18 155.785 1547.13 150.746 1540.68 147.114C1534.32 143.392 1526.92 141.531 1518.47 141.531C1509.65 141.531 1501.84 143.574 1495.02 147.659C1488.3 151.654 1483.03 157.056 1479.21 163.866C1475.4 170.585 1473.44 178.075 1473.35 186.337V220.521C1473.35 230.871 1475.26 239.814 1479.08 247.35C1482.98 254.886 1488.48 260.697 1495.57 264.783C1502.66 268.868 1511.06 270.911 1520.78 270.911C1527.23 270.911 1533.14 270.003 1538.5 268.187C1543.86 266.371 1548.45 263.648 1552.27 260.016C1556.08 256.384 1558.99 251.935 1560.99 246.669L1614.69 250.21C1611.96 263.103 1606.37 274.361 1597.92 283.985C1589.57 293.519 1578.75 300.964 1565.49 306.32C1552.31 311.587 1537.09 314.22 1519.83 314.22Z" fill="currentColor"/>
<path d="M1765.16 100.946V144.527H1639.09V100.946H1765.16ZM1667.71 50.8282H1725.77V245.852C1725.77 251.209 1726.59 255.385 1728.22 258.382C1729.86 261.287 1732.13 263.33 1735.04 264.51C1738.03 265.69 1741.49 266.281 1745.39 266.281C1748.12 266.281 1750.85 266.054 1753.57 265.6C1756.3 265.055 1758.39 264.646 1759.84 264.374L1768.97 307.546C1766.06 308.454 1761.98 309.498 1756.71 310.679C1751.44 311.95 1745.03 312.721 1737.49 312.994C1723.5 313.539 1711.23 311.677 1700.69 307.41C1690.24 303.143 1682.11 296.515 1676.29 287.526C1670.48 278.538 1667.62 267.189 1667.71 253.479V50.8282Z" fill="currentColor"/>
<path d="M1808.57 310.134V31.2168H1867.58V146.297H1987.38V31.2168H2046.26V310.134H1987.38V194.917H1867.58V310.134H1808.57Z" fill="#34D399"/>
<path d="M2228.07 221.066V100.946H2286.13V310.134H2230.39V272.137H2228.21C2223.49 284.394 2215.63 294.245 2204.63 301.69C2193.73 309.135 2180.42 312.858 2164.7 312.858C2150.71 312.858 2138.39 309.68 2127.76 303.324C2117.13 296.969 2108.82 287.935 2102.82 276.223C2096.92 264.51 2093.92 250.483 2093.83 234.14V100.946H2151.89V223.789C2151.98 236.137 2155.29 245.898 2161.84 253.07C2168.38 260.243 2177.15 263.829 2188.14 263.829C2195.14 263.829 2201.68 262.24 2207.77 259.063C2213.85 255.794 2218.76 250.982 2222.49 244.626C2226.3 238.271 2228.17 230.417 2228.07 221.066Z" fill="#34D399"/>
<path d="M2333.67 310.134V31.2168H2391.73V136.083H2393.5C2396.04 130.454 2399.72 124.734 2404.54 118.923C2409.45 113.022 2415.81 108.119 2423.62 104.215C2431.53 100.22 2441.34 98.2223 2453.06 98.2223C2468.32 98.2223 2482.41 102.217 2495.31 110.207C2508.21 118.106 2518.53 130.045 2526.25 146.025C2533.97 161.914 2537.83 181.843 2537.83 205.812C2537.83 229.146 2534.06 248.848 2526.52 264.919C2519.07 280.898 2508.89 293.019 2495.99 301.281C2483.18 309.453 2468.82 313.539 2452.92 313.539C2441.66 313.539 2432.07 311.677 2424.17 307.955C2416.35 304.232 2409.95 299.556 2404.95 293.927C2399.95 288.207 2396.13 282.442 2393.5 276.631H2390.91V310.134H2333.67ZM2390.5 205.54C2390.5 217.979 2392.23 228.828 2395.68 238.089C2399.13 247.35 2404.13 254.568 2410.67 259.744C2417.21 264.828 2425.16 267.37 2434.52 267.37C2443.97 267.37 2451.97 264.783 2458.51 259.607C2465.05 254.341 2470 247.078 2473.37 237.817C2476.82 228.465 2478.55 217.706 2478.55 205.54C2478.55 193.464 2476.87 182.842 2473.5 173.671C2470.14 164.501 2465.19 157.329 2458.65 152.153C2452.11 146.978 2444.06 144.391 2434.52 144.391C2425.07 144.391 2417.08 146.887 2410.54 151.881C2404.08 156.875 2399.13 163.957 2395.68 173.127C2392.23 182.297 2390.5 193.101 2390.5 205.54Z" fill="#34D399"/>
</g>
<defs>
<clipPath id="clip0_458_2144">
<rect width="2538" height="346" fill="white"/>
</clipPath>
</defs>
</svg>
