<svg xmlns="http://www.w3.org/2000/svg" viewBox="0 0 160 160" width="160" height="160">
  <defs>
    <linearGradient id="iconGrad" x1="0%" y1="0%" x2="100%" y2="100%">
      <stop offset="0%" style="stop-color:#ff6b35"/>
      <stop offset="40%" style="stop-color:#f7931e"/>
      <stop offset="100%" style="stop-color:#ff4500"/>
    </linearGradient>
  </defs>

  <!-- White background -->
  <rect width="160" height="160" rx="0" fill="#ffffff"/>

  <g transform="translate(80, 80)">
    <!-- Hexagon container -->
    <polygon points="0,-62 53.7,-31 53.7,31 0,62 -53.7,31 -53.7,-31"
             fill="none" stroke="url(#iconGrad)" stroke-width="6"/>

    <!-- Dots with circuit lines (scaled to 85%) -->
    <g transform="scale(0.85)">
      <!-- Letter "I" -->
      <circle cx="-33" cy="-30" r="4.8" fill="#ff6b35"/>
      <circle cx="-23" cy="-30" r="4.8" fill="#ff6b35"/>
      <circle cx="-13" cy="-30" r="4.8" fill="#ff6b35"/>
      <line x1="-33" y1="-30" x2="-13" y2="-30" stroke="#ff6b35" stroke-width="1.8" opacity="0.35"/>
      <circle cx="-23" cy="-20" r="4.8" fill="#f7931e"/>
      <circle cx="-23" cy="-10" r="4.8" fill="#f7931e"/>
      <circle cx="-23" cy="0" r="4.8" fill="#f7931e"/>
      <circle cx="-23" cy="10" r="4.8" fill="#f7931e"/>
      <circle cx="-23" cy="20" r="4.8" fill="#f7931e"/>
      <line x1="-23" y1="-30" x2="-23" y2="30" stroke="#f7931e" stroke-width="1.8" opacity="0.35"/>
      <circle cx="-33" cy="30" r="4.8" fill="#ff4500"/>
      <circle cx="-23" cy="30" r="4.8" fill="#ff4500"/>
      <circle cx="-13" cy="30" r="4.8" fill="#ff4500"/>
      <line x1="-33" y1="30" x2="-13" y2="30" stroke="#ff4500" stroke-width="1.8" opacity="0.35"/>

      <!-- Letter "B" -->
      <circle cx="3" cy="-30" r="4.8" fill="#ff6b35"/>
      <circle cx="13" cy="-30" r="4.8" fill="#ff6b35"/>
      <circle cx="23" cy="-30" r="4.8" fill="#ff6b35"/>
      <circle cx="33" cy="-30" r="4.8" fill="#ff6b35"/>
      <line x1="3" y1="-30" x2="33" y2="-30" stroke="#ff6b35" stroke-width="1.8" opacity="0.35"/>
      <circle cx="3" cy="-20" r="4.8" fill="#f7931e"/>
      <circle cx="33" cy="-20" r="4.8" fill="#f7931e" opacity="0.8"/>
      <line x1="33" y1="-30" x2="33" y2="-10" stroke="#f7931e" stroke-width="1.8" opacity="0.25"/>
      <circle cx="3" cy="-10" r="4.8" fill="#f7931e"/>
      <circle cx="33" cy="-10" r="4.8" fill="#f7931e" opacity="0.8"/>
      <circle cx="3" cy="0" r="4.8" fill="#f7931e"/>
      <circle cx="13" cy="0" r="4.8" fill="#f7931e"/>
      <circle cx="23" cy="0" r="4.8" fill="#f7931e"/>
      <circle cx="33" cy="0" r="4.8" fill="#f7931e"/>
      <line x1="3" y1="0" x2="33" y2="0" stroke="#f7931e" stroke-width="1.8" opacity="0.35"/>
      <line x1="3" y1="-30" x2="3" y2="30" stroke="#f7931e" stroke-width="1.8" opacity="0.3"/>
      <circle cx="3" cy="10" r="4.8" fill="#f7931e"/>
      <circle cx="33" cy="10" r="4.8" fill="#ff4500" opacity="0.8"/>
      <line x1="33" y1="0" x2="33" y2="20" stroke="#ff4500" stroke-width="1.8" opacity="0.25"/>
      <circle cx="3" cy="20" r="4.8" fill="#ff4500"/>
      <circle cx="33" cy="20" r="4.8" fill="#ff4500" opacity="0.8"/>
      <circle cx="3" cy="30" r="4.8" fill="#ff4500"/>
      <circle cx="13" cy="30" r="4.8" fill="#ff4500"/>
      <circle cx="23" cy="30" r="4.8" fill="#ff4500"/>
      <circle cx="33" cy="30" r="4.8" fill="#ff4500"/>
      <line x1="3" y1="30" x2="33" y2="30" stroke="#ff4500" stroke-width="1.8" opacity="0.35"/>

      <!-- Cross-connections -->
      <line x1="-13" y1="-30" x2="3" y2="-30" stroke="#ff6b35" stroke-width="1.2" opacity="0.15" stroke-dasharray="2,2"/>
      <line x1="-13" y1="30" x2="3" y2="30" stroke="#ff4500" stroke-width="1.2" opacity="0.15" stroke-dasharray="2,2"/>
    </g>
  </g>
</svg>