<svg width="24" height="24" viewBox="0 0 24 24" fill="none" xmlns="http://www.w3.org/2000/svg">
<g clip-path="url(#clip0_254_1953)">
<path d="M4 6.99977C4 8.06064 4.99971 8.74985 6.5 9.5C8.00029 10.2501 9.87827 10.5 12 10.5C14.1217 10.5 15.9997 10.2501 17.5 9.5C19.0003 8.74985 20 8.06064 20 6.99977C20 5.9389 19.0003 5.25015 17.5 4.5C15.9997 3.74985 14.1217 3.5 12 3.5C9.87827 3.5 7.84344 3.74943 6.34315 4.49958C4.84285 5.24972 4 5.9389 4 6.99977Z" stroke="currentColor" stroke-width="1.5" stroke-linecap="round" stroke-linejoin="round"/>
<path d="M4 7C4 7.664 4.088 8.324 4.263 8.965L6.5 19C7 20.5 9.239 21 12 21C14.0212 21 15.4947 20.7321 16.3354 20" stroke="currentColor" stroke-width="1.5" stroke-linecap="round" stroke-linejoin="round"/>
<path d="M19.75 13V15.75M19.75 15.75V18.5M19.75 15.75H17M19.75 15.75H22.5" stroke="currentColor" stroke-width="1.5" stroke-linecap="round" stroke-linejoin="round"/>
</g>
</svg>
