<svg width="56" height="56" viewBox="0 0 56 56" fill="none" xmlns="http://www.w3.org/2000/svg">
<g clip-path="url(#clip0_168_11877)">
<g clip-path="url(#clip1_168_11877)">
<path d="M5.0332 13.5143C5.0332 16.5594 7.90272 18.5377 12.2091 20.6908C16.5154 22.844 21.9059 23.5612 27.996 23.5612C34.0861 23.5612 39.4766 22.844 43.7829 20.6908C48.0893 18.5377 50.9588 16.5594 50.9588 13.5143C50.9588 10.4693 48.0893 8.49228 43.7829 6.3391C39.4766 4.18592 34.0861 3.46875 27.996 3.46875C21.9059 3.46875 16.0652 4.18471 11.7588 6.33789C7.45249 8.49107 5.0332 10.4693 5.0332 13.5143Z" stroke="currentColor" stroke-width="4" stroke-linecap="round" stroke-linejoin="round"/>
<path d="M5.0332 13.5137C5.0332 15.4196 5.28579 17.314 5.7881 19.1539L12.2091 47.9579C13.6443 52.2634 20.071 53.6986 27.996 53.6986C36.6074 53.6986 41.528 51.8537 43.3733 47.9579L49.7173 19.1539C49.7173 19.1539 50.7542 16.1794 51.0002 13.5137" stroke="currentColor" stroke-width="4" stroke-linecap="round" stroke-linejoin="round"/>
</g>
</g>
<defs>
<clipPath id="clip0_168_11877">
<rect width="56" height="56" fill="currentColor"/>
</clipPath>
<clipPath id="clip1_168_11877">
<rect width="56" height="56" fill="currentColor"/>
</clipPath>
</defs>
</svg>
