<svg width="368" height="368" viewBox="0 0 368 368" fill="none" xmlns="http://www.w3.org/2000/svg">
<path d="M304.825 32.5H63.1754C40.9321 32.5 22.9004 50.5579 22.9004 72.8334C22.9004 95.1088 40.9321 113.167 63.1754 113.167H304.825C327.068 113.167 345.1 95.1088 345.1 72.8334C345.1 50.5579 327.068 32.5 304.825 32.5Z" fill="#34D399"/>
<path d="M264.551 143.416H103.451C81.2075 143.416 63.1758 161.474 63.1758 183.75C63.1758 206.026 81.2075 224.084 103.451 224.084H264.551C286.794 224.084 304.826 206.026 304.826 183.75C304.826 161.474 286.794 143.416 264.551 143.416Z" fill="#10B981"/>
<path d="M224.274 254.334H143.724C121.481 254.334 103.449 272.391 103.449 294.666C103.449 316.942 121.481 335 143.724 335H224.274C246.517 335 264.549 316.942 264.549 294.666C264.549 272.391 246.517 254.334 224.274 254.334Z" fill="#047857"/>
</svg>
